<svg width="89" height="89" viewBox="0 0 89 89" fill="none" xmlns="http://www.w3.org/2000/svg">
<path d="M89 0H0V89H89V0Z" fill="black"/>
<path d="M47.689 13.231L61.3007 26.8427L47.689 40.4545" stroke="white" stroke-width="4.606" stroke-miterlimit="10"/>
<path d="M61.3955 13.231L75.0073 26.8427L61.3955 40.4545" stroke="white" stroke-width="4.606" stroke-miterlimit="10"/>
<path d="M40.7402 76.0546L27.1284 62.4428L40.7402 48.9263" stroke="white" stroke-width="4.606" stroke-miterlimit="10"/>
<path d="M27.5089 39.2171C34.6585 39.2171 40.4544 33.4212 40.4544 26.2716C40.4544 19.122 34.6585 13.3262 27.5089 13.3262C20.3594 13.3262 14.5635 19.122 14.5635 26.2716C14.5635 33.4212 20.3594 39.2171 27.5089 39.2171Z" stroke="#00D9C0" stroke-width="5.1073" stroke-miterlimit="10"/>
<path d="M61.3004 75.7691C68.45 75.7691 74.2459 69.9732 74.2459 62.8236C74.2459 55.674 68.45 49.8782 61.3004 49.8782C54.1509 49.8782 48.355 55.674 48.355 62.8236C48.355 69.9732 54.1509 75.7691 61.3004 75.7691Z" stroke="#00D9C0" stroke-width="5.1073" stroke-miterlimit="10"/>
</svg>
